<?xml version="1.0" encoding="utf-8"?>
<!-- Svg Vector Icons : http://www.onlinewebfonts.com/icon -->
<!DOCTYPE svg PUBLIC "-//W3C//DTD SVG 1.1//EN" "http://www.w3.org/Graphics/SVG/1.1/DTD/svg11.dtd">
<svg version="1.1" xmlns="http://www.w3.org/2000/svg" xmlns:xlink="http://www.w3.org/1999/xlink" x="0px" y="0px" viewBox="0 0 256 256" enable-background="new 0 0 256 256" xml:space="preserve">
<metadata> Svg Vector Icons : http://www.onlinewebfonts.com/icon </metadata>
<g><g><g><path fill="#000000" d="M119.6,10.4C96.7,12,74.9,20.3,55.5,34.9c-5.3,4-17.3,16.1-21.6,21.9C12,86.1,4.7,122.6,13.8,158.1c3.9,15.1,12.4,32,22.5,44.5c4,4.9,12.3,13.2,17.4,17.3C74.9,236.8,101.1,246,128,246c18.1,0,36-4.2,52.1-12.2c12.6-6.3,21.9-12.9,31.8-22.9c24.2-24.3,36.8-59.2,33.7-93c-3.2-34.8-20.9-65.8-49.2-86c-18-12.8-38.4-20.1-61.1-21.6C127.6,9.8,127.8,9.8,119.6,10.4z M136.5,32.3c38.1,3.6,70.3,29,82.4,64.9c13,38.5,0.8,80.3-31,105.8c-22.3,17.9-51.6,24.9-79.9,19C78.4,216,52.7,195,40.1,167c-13.3-29.7-10.3-64.8,7.8-92.1C67.5,45.6,101.8,29.1,136.5,32.3z"/><path fill="#000000" d="M121.6,61.6v6.7l-3,0.3c-1.7,0.2-5,0.9-7.5,1.5c-13.8,3.5-22.4,10.4-25.9,20.7c-1.1,3.4-1.3,12.7-0.2,16.3c3.2,11.4,12.8,19.5,31.9,26.9l4.7,1.8v13.6v13.6h-1.4c-2.6,0-12.4-1.9-18.7-3.6c-4.8-1.4-12.8-4.2-17-6c-0.2-0.1-0.4,5-0.4,11.3v11.5l3.8,1.4c8.1,3.1,18.4,5.2,28.2,5.8l5.6,0.3v8.7v8.7h6.1h6.1v-9v-8.9l3.3-0.3c5.2-0.5,12.1-2.5,17.6-5.2c11-5.4,17.1-14.7,17.1-26.3c0-9.6-3.6-16.7-11.8-22.8c-4-3-13.2-7.8-21.5-11.1l-4.8-1.9v-13V89.4l1.4,0.2c0.7,0.1,3.6,0.6,6.4,1c4.8,0.7,14.1,3.3,18,4.9c1,0.4,1.9,0.5,2.1,0.3c0.3-0.3,2.4-5.5,7.3-17.8l0.9-2.3l-4.5-1.7c-8.1-3.1-17.9-5.2-27.5-6l-4-0.3v-6.5v-6.5h-6.1h-6.1L121.6,61.6L121.6,61.6z M121.6,100.1c0,5.6-0.1,10.2-0.3,10.2c-0.7,0-6-3.1-7.6-4.4c-4.3-3.6-4.4-10.1-0.3-13.2c1.4-1,6.1-2.8,7.6-2.9C121.5,89.9,121.6,92.2,121.6,100.1z M139,143.6c4.6,2.9,6,4.6,6.4,7.8c0.3,3.2-0.6,5.6-3,7.6c-1.6,1.4-6.9,3.7-8.4,3.7c-0.1,0-0.2-4.8-0.2-10.7c0-8.4,0.1-10.7,0.6-10.7C134.8,141.1,136.9,142.2,139,143.6z"/></g></g></g>
</svg>